<svg id="Component_1_7" data-name="Component 1 – 7" xmlns="http://www.w3.org/2000/svg" xmlns:xlink="http://www.w3.org/1999/xlink" width="276.704" height="70.403" viewBox="0 0 276.704 70.403">
  <defs>
    <clipPath id="clip-path">
      <path id="Path_2" data-name="Path 2" d="M228.741,274.353v0l5.122,8.824a4.793,4.793,0,0,0,2.527,1.868l8.222,2.056s4.987.418,8.329,6.6l.009.006A19.689,19.689,0,0,0,251.4,285.1c-.082-.153-.17-.334-.255-.479-.03-.057-.079-.131-.118-.2-4.963-7.337-21.341-11.228-21.341-11.228a1.556,1.556,0,0,0-.363-.045c-.669,0-.983.511-.588,1.2" transform="translate(-228.567 -273.15)" fill="none"/>
    </clipPath>
    <linearGradient id="linear-gradient" x1="-10.379" y1="12.314" x2="-10.353" y2="12.314" gradientUnits="objectBoundingBox">
      <stop offset="0" stop-color="#c4b6c4"/>
      <stop offset="0.699" stop-color="#532f63"/>
      <stop offset="1" stop-color="#532f63"/>
    </linearGradient>
    <clipPath id="clip-path-2">
      <path id="Path_4" data-name="Path 4" d="M263.331,285.888c-.1.143-.2.307-.293.459-.031.057-.074.141-.1.194-3.912,7.952.891,24.009.891,24.009.267.889,1.012,1.041,1.478.241h0l5.118-8.826a4.717,4.717,0,0,0,.363-3.11l-2.32-8.118s-2.131-4.5,1.583-10.472l0-.019a20,20,0,0,0-6.723,5.642" transform="translate(-261.4 -280.246)" fill="none"/>
    </clipPath>
    <linearGradient id="linear-gradient-2" x1="-10.69" y1="13.194" x2="-10.666" y2="13.194" xlink:href="#linear-gradient"/>
    <clipPath id="clip-path-3">
      <path id="Path_25" data-name="Path 25" d="M265.225,265.34l-5.908,6.045s-2.865,4.085-9.921,3.859l-.009.007a19.972,19.972,0,0,0,8.263,2.988c.174.006.376.022.546.02.066,0,.154,0,.232,0,8.865-.595,20.464-12.742,20.464-12.742.636-.675.4-1.393-.531-1.4h0l-10.24-.014a4.8,4.8,0,0,0-2.893,1.238" transform="translate(-249.387 -264.102)" fill="none"/>
    </clipPath>
    <linearGradient id="linear-gradient-3" x1="-26.192" y1="12.743" x2="-26.136" y2="12.743" gradientUnits="objectBoundingBox">
      <stop offset="0" stop-color="#f6c6ca"/>
      <stop offset="0.699" stop-color="#e30e62"/>
      <stop offset="1" stop-color="#e30e62"/>
    </linearGradient>
  </defs>
  <g id="Group_1" data-name="Group 1" transform="translate(0 7.251)">
    <path id="Path_1" data-name="Path 1" d="M228.741,274.353c-.463-.808.044-1.368.95-1.158,0,0,16.379,3.892,21.342,11.227.038.068.086.143.118.2.085.143.174.327.254.479,3.929,7.969-.875,24-.875,24-.268.889-1.012,1.039-1.478.241l-5.146-8.861a4.778,4.778,0,0,1-.3-3.134l2.28-8.063a1.964,1.964,0,0,0-1.271-2.185l-8.222-2.054a4.784,4.784,0,0,1-2.526-1.871l-5.122-8.822" transform="translate(-228.566 -273.15)" fill="#532f63"/>
  </g>
  <g id="Group_3" data-name="Group 3" transform="translate(0 7.251)">
    <g id="Group_2" data-name="Group 2" clip-path="url(#clip-path)">
      <rect id="Rectangle_1" data-name="Rectangle 1" width="31.619" height="30.096" transform="translate(-9.171 5.141) rotate(-30.001)" fill="url(#linear-gradient)"/>
    </g>
  </g>
  <g id="Group_4" data-name="Group 4" transform="translate(26.28 7.252)">
    <path id="Path_3" data-name="Path 3" d="M265.3,309.346c-.467.8-1.212.648-1.48-.24,0,0-4.8-16.059-.891-24.009.03-.053.074-.136.1-.194.088-.152.2-.316.294-.459,4.97-7.369,21.328-11.248,21.328-11.248.906-.211,1.411.35.952,1.158l-5.14,8.853a4.863,4.863,0,0,1-2.58,1.843l-8.157,2.059a1.966,1.966,0,0,0-1.268,2.184l2.321,8.119a4.74,4.74,0,0,1-.363,3.11l-5.117,8.825" transform="translate(-261.4 -273.151)" fill="#532f63"/>
  </g>
  <g id="Group_6" data-name="Group 6" transform="translate(26.281 12.902)">
    <g id="Group_5" data-name="Group 5" clip-path="url(#clip-path-2)">
      <rect id="Rectangle_2" data-name="Rectangle 2" width="33.16" height="26.117" transform="matrix(0.5, -0.866, 0.866, 0.5, -16.019, 23.508)" fill="url(#linear-gradient-2)"/>
    </g>
  </g>
  <g id="Group_7" data-name="Group 7" transform="translate(4.136)">
    <path id="Path_5" data-name="Path 5" d="M326.574,297.458a13.908,13.908,0,0,1-11.495,5.748c-8.829,0-15.287-7.189-15.287-17,0-9.932,6.331-17.128,15.034-17.128a14.741,14.741,0,0,1,7.808,2.3,18.775,18.775,0,0,1,4.027,3.44l3.712-3.373a19.57,19.57,0,0,0-4.991-4.394,20.96,20.96,0,0,0-10.683-2.86c-11.776,0-20.41,9.287-20.41,22.079,0,12.738,8.508,21.846,20.41,21.846a20.843,20.843,0,0,0,9.98-2.427,13.9,13.9,0,0,0,4.134-3.1,16.628,16.628,0,0,1-2.24-5.131" transform="translate(-245.82 -264.075)" fill="#e40e63"/>
    <path id="Path_6" data-name="Path 6" d="M391.905,289.387v-.257c-.062-2.733-2.177-4.457-5.631-4.457-3.264,0-5.375,1.6-5.375,4.14,0,2.67,1.153,3.561,6.588,5.035,3.84,1.015,5.762,1.907,7.233,3.309a8.558,8.558,0,0,1,2.3,5.79c0,5.032-4.223,8.408-10.365,8.408-6.784,0-10.559-3-11.069-8.913h4.8c.318,3.245,2.495,5.026,6.142,5.026,3.326,0,5.5-1.72,5.5-4.268s-1.6-3.817-6.722-5.153c-6.4-1.656-9.279-4.394-9.279-8.848,0-5.03,4.225-8.47,10.306-8.47,6.333,0,10.109,3.189,10.365,8.659Z" transform="translate(-262.047 -267.442)" fill="#e40e63"/>
    <path id="Path_7" data-name="Path 7" d="M409.23,297.605c.58,5.724,4.48,9.409,9.79,9.409a10.159,10.159,0,0,0,8.895-5.089l4.289,1.592a14.463,14.463,0,0,1-13.116,7.839c-8.769,0-15.04-6.307-15.04-15.221,0-8.974,6.144-15.406,14.847-15.406a14.633,14.633,0,0,1,14.971,15.026c0,.444,0,1.086-.065,1.85ZM418.894,285a9.552,9.552,0,0,0-7.932,4.136,10.338,10.338,0,0,0-1.668,4.963h19.388c-.511-5.537-4.353-9.1-9.788-9.1" transform="translate(-267.727 -267.442)" fill="#e40e63"/>
    <path id="Path_8" data-name="Path 8" d="M448.958,281.429V285.5c2.561-3.376,5.115-4.774,8.768-4.774a9.913,9.913,0,0,1,6.784,2.419c1.918,1.847,2.557,3.7,2.557,7.831v19.735H462.2V292.06c-.061-5.03-1.662-7.066-5.7-7.066-4.415,0-7.55,3.311-7.55,7.832v17.888H444.1V281.429Z" transform="translate(-275.721 -267.442)" fill="#e40e63"/>
    <path id="Path_9" data-name="Path 9" d="M482.571,302.528c0,1.4.448,1.79,2.177,1.79h2.242v4.2h-4.478c-3.456,0-4.782-1.343-4.782-4.52V283.507H473.7v-4.281h4.029v-9.289h4.842v9.289h4.066l1.4,4.281h-5.463Z" transform="translate(-281.629 -265.245)" fill="#e40e63"/>
    <path id="Path_10" data-name="Path 10" d="M514.456,281.608H519.7l-17.59,43.422H496.86L503,310l-10.493-28.391h5.122l8,21.714Z" transform="translate(-285.384 -267.621)" fill="#e40e63"/>
    <path id="Path_11" data-name="Path 11" d="M527.653,310.893h-5.947l10.878-14.516-7.048-9.385,2.164-5.341,7.828,10.721,8-10.765h5.949L538.4,296.378l10.556,14.516h-5.882l-7.55-10.628Z" transform="translate(-291.211 -267.621)" fill="#e40e63"/>
    <path id="Path_12" data-name="Path 12" d="M298.471,346.227l1.2-1.023a6.34,6.34,0,0,0,4.671,1.8c1.929,0,3.883-1.05,3.883-2.972,0-1.826-1.144-2.4-3.22-2.787l-1.657-.36c-2.651-.514-4.244-1.716-4.244-3.808,0-2.428,1.893-4.312,5.209-4.312a6.775,6.775,0,0,1,5,1.645l-1.174.989a5.984,5.984,0,0,0-3.977-1.262c-1.986,0-3.315,1.113-3.315,2.642,0,1.555,1.205,2.161,3.4,2.634l2.228.487c2.112.472,3.587,1.588,3.587,3.773,0,3.148-2.86,4.74-5.7,4.74-2.378,0-4.514-.61-5.9-2.187" transform="translate(-246.655 -278.038)" fill="#532f63"/>
    <path id="Path_13" data-name="Path 13" d="M314.995,342.421v-3.244c0-4.1,2.679-6.381,6.266-6.381,3.342,0,5.784,2.042,5.784,5.879v2.189H316.833v1.768c0,2.634,1.686,4.312,4.578,4.312a4.989,4.989,0,0,0,4.009-1.918l1.323.846a6.307,6.307,0,0,1-5.454,2.574c-3.675,0-6.294-1.92-6.294-6.025m10.3-2.818v-1.015c0-2.345-1.293-4.316-4.183-4.316a4.227,4.227,0,0,0-4.278,4.516v.815Z" transform="translate(-249.953 -278.043)" fill="#532f63"/>
    <path id="Path_14" data-name="Path 14" d="M332.227,342.453v-3.484c0-3.865,2.38-6.174,6-6.174,3.527,0,5.725,1.982,5.725,4.947v.457H342.23v-.6c0-1.523-1.14-3.323-3.978-3.323-2.8,0-4.185,1.97-4.185,4.586v3.624c0,2.607,1.233,4.461,4.217,4.461,2.83,0,3.946-1.767,3.946-3.326v-.5h1.717v.39c0,2.963-2.137,4.944-5.695,4.944-3.734,0-6.025-2.155-6.025-5.994" transform="translate(-253.392 -278.043)" fill="#532f63"/>
    <path id="Path_15" data-name="Path 15" d="M349.423,343.791V333.215H351.2v9.774c0,2.787,1.389,3.951,3.463,3.951a4.649,4.649,0,0,0,4.614-4.792v-8.933h1.747v14.928h-1.691V345.3h-.056a5.63,5.63,0,0,1-5.184,3.209,4.372,4.372,0,0,1-4.674-4.715" transform="translate(-256.825 -278.129)" fill="#532f63"/>
    <path id="Path_16" data-name="Path 16" d="M367.98,325.081h1.777v14.24l7.144-7.763h2.168l-5.153,5.486,5.635,9.443h-1.989l-4.881-8.191-2.924,3.062v5.129H367.98Z" transform="translate(-260.529 -276.473)" fill="#532f63"/>
    <path id="Path_17" data-name="Path 17" d="M384.285,324.862h1.738v3.047h-1.738Zm.207,6.653h1.745v14.927h-1.745Z" transform="translate(-263.783 -276.428)" fill="#532f63"/>
    <path id="Path_18" data-name="Path 18" d="M390.863,333.125h1.688v2.845h.061a5.671,5.671,0,0,1,5.179-3.2,4.362,4.362,0,0,1,4.671,4.7v10.586h-1.779v-9.77c0-2.792-1.385-3.96-3.434-3.96a4.652,4.652,0,0,0-4.638,4.8v8.931h-1.749Z" transform="translate(-265.096 -278.038)" fill="#532f63"/>
    <path id="Path_19" data-name="Path 19" d="M409.118,343.791V333.215H410.9v9.774c0,2.787,1.386,3.951,3.462,3.951a4.646,4.646,0,0,0,4.609-4.792v-8.933h1.747v14.928H419.03V345.3h-.063a5.621,5.621,0,0,1-5.181,3.209,4.369,4.369,0,0,1-4.668-4.715" transform="translate(-268.739 -278.129)" fill="#532f63"/>
    <path id="Path_20" data-name="Path 20" d="M427.632,333.125h1.69v2.845h.061a5.652,5.652,0,0,1,5.211-3.2,4.118,4.118,0,0,1,4.249,3.26h.028a5.867,5.867,0,0,1,5.331-3.26,4.325,4.325,0,0,1,4.668,4.552v10.732h-1.744v-9.77c0-2.705-1.292-3.96-3.465-3.96a4.632,4.632,0,0,0-4.519,4.557v9.173h-1.748v-9.858c-.059-2.581-1.263-3.872-3.434-3.872a4.6,4.6,0,0,0-4.546,4.641v9.088h-1.781Z" transform="translate(-272.435 -278.038)" fill="#532f63"/>
    <path id="Path_21" data-name="Path 21" d="M457.179,344.123c0-3.357,3.1-4.464,5.571-4.464h4.4V337.35c0-2.341-1.565-3.146-3.824-3.146-1.869,0-3.857.66-3.857,2.6v.48h-1.63v-.452c0-2.966,2.772-4.07,5.577-4.07,2.921,0,5.51,1.048,5.51,4.281v7.258c0,.862.123,3.084.211,3.744h-1.744c-.064-.514-.125-1.921-.125-2.367h-.056c-1.236,2.3-3.257,2.7-5.091,2.7-2.714,0-4.941-1.5-4.941-4.259m9.969-1.471v-1.674h-4.036c-2.049,0-4.157.51-4.157,3.055,0,2.015,1.747,2.972,3.644,2.972,3.01,0,4.548-1.772,4.548-4.353" transform="translate(-278.332 -278.038)" fill="#532f63"/>
    <path id="Path_22" data-name="Path 22" d="M477.407,343.819h-.094v2.674h-1.657V325.116h1.75v9.119h.084a5.283,5.283,0,0,1,4.824-3.025,4.934,4.934,0,0,1,5.3,5.155v4.851a5.287,5.287,0,0,1-5.635,5.665,4.753,4.753,0,0,1-4.576-3.062m8.4-2.361v-5.093c0-2.067-1.5-3.631-4.037-3.631a4.7,4.7,0,0,0-4.364,4.973v2.976a4.431,4.431,0,0,0,4.4,4.7,3.787,3.787,0,0,0,4.006-3.921" transform="translate(-282.02 -276.48)" fill="#532f63"/>
    <path id="Path_23" data-name="Path 23" d="M351.8,311.356c-8.762,0-14.907-6.241-14.907-15.347,0-9.033,6.082-15.279,14.975-15.279,8.7,0,15.034,6.432,15.034,15.217,0,8.847-6.525,15.409-15.1,15.409m.068-26.171c-6.011,0-10.047,4.39-10.047,10.95,0,6.429,4.1,10.879,10.047,10.879s10.044-4.515,10.044-11.137c0-6.357-4.094-10.693-10.044-10.693" transform="translate(-254.324 -267.442)" fill="#e40e63"/>
    <path id="Path_24" data-name="Path 24" d="M275.236,264.106c.934.007,1.168.725.531,1.4,0,0-11.6,12.147-20.466,12.742-.076,0-.166,0-.232,0-.168,0-.37-.014-.544-.019-8.9-.615-20.433-12.79-20.433-12.79-.64-.677-.4-1.393.53-1.393l10.288.011a4.86,4.86,0,0,1,2.878,1.311l5.866,6.006a1.982,1.982,0,0,0,2.536,0l5.909-6.045a4.792,4.792,0,0,1,2.893-1.238l10.24.014" transform="translate(-233.734 -264.045)" fill="#e40e63"/>
  </g>
  <g id="Group_9" data-name="Group 9" transform="translate(16.665 0.045)">
    <g id="Group_8" data-name="Group 8" clip-path="url(#clip-path-3)">
      <rect id="Rectangle_3" data-name="Rectangle 3" width="14.208" height="30.164" transform="translate(-0.023 14.16) rotate(-89.908)" fill="url(#linear-gradient-3)"/>
    </g>
  </g>
  <g id="Group_10" data-name="Group 10" transform="translate(264.554 4.693)">
    <path id="Path_26" data-name="Path 26" d="M569.459,280.265a6.067,6.067,0,0,1-10.369-4.294,6.049,6.049,0,0,1,6.063-6.033,5.892,5.892,0,0,1,4.306,1.764,5.785,5.785,0,0,1,1.781,4.269,5.852,5.852,0,0,1-1.781,4.294m-8-7.969a5.021,5.021,0,0,0-1.524,3.684,5.08,5.08,0,0,0,1.515,3.707,5.233,5.233,0,1,0,.009-7.391m3.579.338a5.142,5.142,0,0,1,1.823.239,1.649,1.649,0,0,1,1.035,1.684,1.447,1.447,0,0,1-.652,1.311,2.515,2.515,0,0,1-.965.323,1.617,1.617,0,0,1,1.146.65,1.819,1.819,0,0,1,.363,1.03v.485c0,.154.006.318.017.494a1.007,1.007,0,0,0,.058.346l.041.084h-1.1l-.017-.066c-.006-.023-.011-.048-.017-.075l-.024-.213V278.4a1.619,1.619,0,0,0-.631-1.52,2.833,2.833,0,0,0-1.308-.214h-.928v2.614H562.7v-6.643Zm1.269,1.046a3.077,3.077,0,0,0-1.425-.248h-1.005v2.407h1.063a3.239,3.239,0,0,0,1.122-.147,1.023,1.023,0,0,0,.689-1.04,1.011,1.011,0,0,0-.444-.972" transform="translate(-559.09 -269.938)" fill="#e40e63"/>
  </g>
</svg>
