<svg xmlns="http://www.w3.org/2000/svg" width="211.93" height="267.941" viewBox="0 0 211.93 267.941">
  <g id="Component_9_5" data-name="Component 9 – 5" transform="matrix(0.998, 0.07, -0.07, 0.998, 17.787, 0)">
    <path id="Path_112" data-name="Path 112" d="M662.837,249.188,617.643,75.737a10.189,10.189,0,0,0-12.454-7.349l-27.383,7.33-1.44-5.526a6.328,6.328,0,0,0-7.734-4.564l-16.243,4.348a12.813,12.813,0,0,0-15.207-7.78,13.028,13.028,0,0,0-9.436,14.377L511.5,80.921a6.431,6.431,0,0,0-4.5,7.84l1.44,5.526-27.384,7.33a10.354,10.354,0,0,0-7.25,12.624L519,287.691a10.188,10.188,0,0,0,12.453,7.349l124.132-33.228A10.354,10.354,0,0,0,662.837,249.188Z" transform="translate(-473.467 -40.397)" fill="#3a7ec1" opacity="0.25" style="mix-blend-mode: multiply;isolation: isolate"/>
    <g id="Group_66" data-name="Group 66" transform="translate(3.172 14.406)">
      <g id="Group_61" data-name="Group 61" transform="translate(0 5.374)">
        <rect id="Rectangle_52" data-name="Rectangle 52" width="145.761" height="197.386" rx="9.128" transform="matrix(0.967, -0.255, 0.255, 0.967, 0, 37.501)" fill="#fff"/>
        <path id="Path_113" data-name="Path 113" d="M659.85,254.373,535.718,287.734a10.187,10.187,0,0,1-12.455-7.378L478.071,106.213a10.4,10.4,0,0,1,7.249-12.673L609.452,60.18a10.187,10.187,0,0,1,12.455,7.378L667.1,241.7A10.4,10.4,0,0,1,659.85,254.373ZM486.1,96.551a7.277,7.277,0,0,0-5.072,8.867L526.222,279.56a7.127,7.127,0,0,0,8.714,5.163l124.132-33.361a7.277,7.277,0,0,0,5.072-8.867L618.947,68.353a7.126,7.126,0,0,0-8.713-5.163Z" transform="translate(-477.39 -59.835)" fill="#532f63"/>
      </g>
      <g id="Group_62" data-name="Group 62" transform="translate(36.383)">
        <path id="Path_114" data-name="Path 114" d="M567.19,58.179l-15.315,4.039a9.817,9.817,0,0,0-18.985,5.007l-15.315,4.039a4.162,4.162,0,0,0-2.965,5.086l1.966,7.437a4.168,4.168,0,0,0,5.093,2.961l49.616-13.086a4.16,4.16,0,0,0,2.964-5.086l-1.967-7.437A4.168,4.168,0,0,0,567.19,58.179Z" transform="translate(-513.143 -53.588)" fill="#dbe2ef"/>
        <path id="Path_115" data-name="Path 115" d="M571.341,74.66,521.725,87.746a5.5,5.5,0,0,1-6.717-3.9L513.042,76.4a5.493,5.493,0,0,1,3.91-6.708l14.106-3.721a11.148,11.148,0,0,1,21.4-5.645l14.107-3.721a5.5,5.5,0,0,1,6.717,3.906l1.967,7.437A5.494,5.494,0,0,1,571.341,74.66Zm-53.71-2.4a2.837,2.837,0,0,0-2.019,3.465l1.966,7.437a2.841,2.841,0,0,0,3.469,2.016l49.616-13.085a2.837,2.837,0,0,0,2.019-3.464l-1.967-7.437a2.841,2.841,0,0,0-3.468-2.017l-16.6,4.379-.339-1.284A8.488,8.488,0,0,0,533.891,66.6l.339,1.284Z" transform="translate(-512.859 -53.303)" fill="#532f63"/>
      </g>
      <ellipse id="Ellipse_11" data-name="Ellipse 11" cx="3.498" cy="3.493" rx="3.498" ry="3.493" transform="translate(63.955 8.513)" fill="#532f63"/>
      <g id="Group_63" data-name="Group 63" transform="translate(35.206 56.359)">
        <ellipse id="Ellipse_12" data-name="Ellipse 12" cx="12.486" cy="12.469" rx="12.486" ry="12.469" transform="translate(0 11.332)" fill="#e4ecf9"/>
        <path id="Path_116" data-name="Path 116" d="M578.77,113.772l-31.92,8.419a1.863,1.863,0,0,1-2.271-1.321h0A1.862,1.862,0,0,1,545.9,118.6l31.92-8.419a1.864,1.864,0,0,1,2.271,1.321h0A1.86,1.86,0,0,1,578.77,113.772Z" transform="translate(-515.326 -110.122)" fill="#e40e63"/>
        <path id="Path_117" data-name="Path 117" d="M605.43,115.862,549.44,130.629a1.864,1.864,0,0,1-2.271-1.321h0a1.861,1.861,0,0,1,1.322-2.268l55.989-14.767a1.864,1.864,0,0,1,2.271,1.321h0A1.861,1.861,0,0,1,605.43,115.862Z" transform="translate(-515.782 -110.492)" fill="#e4ecf9"/>
        <path id="Path_118" data-name="Path 118" d="M608.02,125.667,552.03,140.434a1.863,1.863,0,0,1-2.271-1.321h0a1.861,1.861,0,0,1,1.322-2.268l55.989-14.767a1.865,1.865,0,0,1,2.271,1.321h0A1.862,1.862,0,0,1,608.02,125.667Z" transform="translate(-516.238 -112.23)" fill="#e4ecf9"/>
      </g>
      <g id="Group_64" data-name="Group 64" transform="translate(49.055 103.293)">
        <ellipse id="Ellipse_13" data-name="Ellipse 13" cx="12.486" cy="12.469" rx="12.486" ry="12.469" transform="translate(0 11.332)" fill="#e4ecf9"/>
        <path id="Path_119" data-name="Path 119" d="M591.267,161.09l-31.92,8.419a1.864,1.864,0,0,1-2.272-1.321h0a1.861,1.861,0,0,1,1.322-2.268l31.92-8.419a1.865,1.865,0,0,1,2.271,1.321h0A1.861,1.861,0,0,1,591.267,161.09Z" transform="translate(-527.823 -157.439)" fill="#e4ecf9"/>
        <path id="Path_120" data-name="Path 120" d="M617.926,163.18l-55.989,14.767a1.865,1.865,0,0,1-2.271-1.321h0a1.862,1.862,0,0,1,1.322-2.268l55.989-14.767a1.863,1.863,0,0,1,2.271,1.321h0A1.861,1.861,0,0,1,617.926,163.18Z" transform="translate(-528.279 -157.81)" fill="#e4ecf9"/>
        <path id="Path_121" data-name="Path 121" d="M620.516,172.985l-55.989,14.767a1.864,1.864,0,0,1-2.272-1.321h0a1.861,1.861,0,0,1,1.322-2.268L619.566,169.4a1.864,1.864,0,0,1,2.271,1.321h0A1.861,1.861,0,0,1,620.516,172.985Z" transform="translate(-528.735 -159.548)" fill="#e4ecf9"/>
      </g>
      <g id="Group_65" data-name="Group 65" transform="translate(62.904 150.228)">
        <ellipse id="Ellipse_14" data-name="Ellipse 14" cx="12.486" cy="12.469" rx="12.486" ry="12.469" transform="translate(0 11.332)" fill="#e4ecf9"/>
        <path id="Path_122" data-name="Path 122" d="M603.763,208.408l-31.92,8.419a1.864,1.864,0,0,1-2.271-1.321h0a1.862,1.862,0,0,1,1.322-2.268l31.92-8.419a1.864,1.864,0,0,1,2.271,1.32h0A1.861,1.861,0,0,1,603.763,208.408Z" transform="translate(-540.319 -204.757)" fill="#e4ecf9"/>
        <path id="Path_123" data-name="Path 123" d="M630.422,210.5l-55.989,14.766a1.864,1.864,0,0,1-2.271-1.321h0a1.861,1.861,0,0,1,1.322-2.268l55.989-14.766a1.864,1.864,0,0,1,2.271,1.321h0A1.862,1.862,0,0,1,630.422,210.5Z" transform="translate(-540.775 -205.128)" fill="#e4ecf9"/>
        <path id="Path_124" data-name="Path 124" d="M633.012,220.3,577.022,235.07a1.865,1.865,0,0,1-2.271-1.321h0a1.862,1.862,0,0,1,1.322-2.268l55.989-14.767a1.864,1.864,0,0,1,2.271,1.321h0A1.861,1.861,0,0,1,633.012,220.3Z" transform="translate(-541.231 -206.866)" fill="#e4ecf9"/>
      </g>
      <path id="Path_125" data-name="Path 125" d="M532.707,120.126l-.065.054a20.334,20.334,0,0,0-2.1,2.055l-.938,1.075-.851,1.112a37.658,37.658,0,0,0-2.982,4.626,40.458,40.458,0,0,0-2.381,4.882c-.4.933-.747,1.886-1.074,2.849-.587-.122-1.18-.226-1.783-.309-.828-.15-1.7-.2-2.556-.281a20.72,20.72,0,0,0-2.675,0l-.084.007a.173.173,0,0,0-.059.331c2.982,1.372,5.993,2.677,9,3.982a.323.323,0,0,0,.421-.169c1.457-3.31,2.891-6.631,4.266-9.976l2.09-5.006c.709-1.664,1.355-3.354,2.036-5.03a.176.176,0,0,0-.028-.177A.174.174,0,0,0,532.707,120.126Z" transform="translate(-478.706 -54.838)" fill="#bacce5"/>
      <path id="Path_126" data-name="Path 126" d="M545.207,167.458l-.065.054a20.252,20.252,0,0,0-2.1,2.054l-.937,1.075-.851,1.112a37.659,37.659,0,0,0-2.982,4.626,40.533,40.533,0,0,0-2.381,4.882c-.4.934-.746,1.887-1.074,2.849-.586-.121-1.18-.226-1.783-.309-.828-.15-1.7-.2-2.556-.281a20.868,20.868,0,0,0-2.675,0l-.084.007a.173.173,0,0,0-.059.33c2.982,1.372,5.993,2.677,9,3.982a.323.323,0,0,0,.421-.169c1.457-3.31,2.891-6.631,4.266-9.976l2.09-5.006c.709-1.664,1.355-3.354,2.036-5.03a.176.176,0,0,0-.028-.177A.174.174,0,0,0,545.207,167.458Z" transform="translate(-479.166 -55.926)" fill="#bacce5"/>
      <path id="Path_127" data-name="Path 127" d="M557.707,214.789l-.065.054a20.16,20.16,0,0,0-2.1,2.055l-.937,1.075-.851,1.112a37.657,37.657,0,0,0-2.982,4.627,40.42,40.42,0,0,0-2.381,4.882c-.4.933-.746,1.886-1.073,2.848-.587-.121-1.181-.225-1.783-.309-.828-.151-1.7-.206-2.556-.282a20.861,20.861,0,0,0-2.675,0l-.084.007a.173.173,0,0,0-.059.331c2.982,1.372,5.993,2.676,9,3.981a.322.322,0,0,0,.421-.169c1.457-3.311,2.891-6.631,4.266-9.976l2.09-5.007c.709-1.663,1.355-3.354,2.036-5.03a.173.173,0,0,0-.273-.2Z" transform="translate(-479.626 -57.014)" fill="#bacce5"/>
    </g>
    <path id="Path_128" data-name="Path 128" d="M664.434,58.653A36.989,36.989,0,1,0,639.523,104.6,37,37,0,0,0,664.434,58.653Z" transform="translate(-478.35 -25.33)" fill="#3a7ec1" opacity="0.25" style="mix-blend-mode: multiply;isolation: isolate"/>
    <g id="Group_68" data-name="Group 68" transform="translate(113.624 0)">
      <g id="Group_67" data-name="Group 67">
        <ellipse id="Ellipse_15" data-name="Ellipse 15" cx="36.698" cy="36.649" rx="36.698" ry="36.649" transform="translate(1.344 1.343)" fill="#fff"/>
        <path id="Path_129" data-name="Path 129" d="M633.763,99.7a38.151,38.151,0,1,1,10.892-1.594A37.865,37.865,0,0,1,633.763,99.7Zm.1-72.988A34.99,34.99,0,1,0,643.8,95.237a34.992,34.992,0,0,0-9.939-68.524Z" transform="translate(-595.771 -23.718)" fill="#532f63"/>
      </g>
    </g>
    <g id="Group_48" data-name="Group 48" transform="translate(131.496 16.216) rotate(-4)">
      <path id="Path_78" data-name="Path 78" d="M37.2,20.055a21.452,21.452,0,0,1-.168,2.666,29.955,29.955,0,0,1-18.445,6.257A29.994,29.994,0,0,1,.16,22.642,21.673,21.673,0,0,1,0,19.975C.023,8.92,8.365-.019,18.641,0S37.221,9,37.2,20.055Z" transform="translate(0.003 23.228)" fill="#bacce5"/>
      <ellipse id="Ellipse_9" data-name="Ellipse 9" cx="14.123" cy="7.755" rx="14.123" ry="7.755" transform="translate(10.869 32.176) rotate(-89.884)" fill="#a5b9d3"/>
      <ellipse id="Ellipse_10" data-name="Ellipse 10" cx="13.822" cy="11.173" rx="13.822" ry="11.173" transform="matrix(0.002, -1, 1, 0.002, 7.46, 27.649)" fill="#bacce5"/>
    </g>
  </g>
</svg>
