<svg xmlns="http://www.w3.org/2000/svg" xmlns:xlink="http://www.w3.org/1999/xlink" width="55.602" height="58.341" viewBox="0 0 55.602 58.341">
  <defs>
    <clipPath id="clip-path">
      <path id="Path_141" data-name="Path 141" d="M0,0H55.6V-58.341H0Z" fill="#b20a4d"/>
    </clipPath>
  </defs>
  <g id="Group_114" data-name="Group 114" transform="translate(0 58.341)">
    <g id="Group_113" data-name="Group 113" clip-path="url(#clip-path)">
      <g id="Group_102" data-name="Group 102" transform="translate(53.872)">
        <path id="Path_130" data-name="Path 130" d="M0,0-.022-5.9c.028-.306.491-5.159-4.774-8.3A63.016,63.016,0,0,0-17.038-19.2,6.732,6.732,0,0,1-21.8-25.643h1.729a5.008,5.008,0,0,0,3.544,4.794,64.722,64.722,0,0,1,12.614,5.16C2.346-11.954,1.731-6.054,1.7-5.8l.028,5.8Z" fill="#b20a4d"/>
      </g>
      <g id="Group_103" data-name="Group 103" transform="translate(1.756 -0.004)">
        <path id="Path_131" data-name="Path 131" d="M0,0H-1.729V-5.9c-.024-.149-.639-6.049,5.616-9.783A64.722,64.722,0,0,1,16.5-20.845a5.01,5.01,0,0,0,3.544-4.8h1.729a6.731,6.731,0,0,1-4.758,6.446A63.141,63.141,0,0,0,4.774-14.2C-.491-11.057-.028-6.2,0-6Z" fill="#b20a4d"/>
      </g>
      <g id="Group_104" data-name="Group 104" transform="translate(36.136 -0.004)">
        <path id="Path_132" data-name="Path 132" d="M0,0H-1.729V-5.342a4.7,4.7,0,0,1-.582-3.45A4.7,4.7,0,0,1-.139-11.855l.173-.107.972-7.651,1.716.217L1.645-10.918l-.884.539A2.993,2.993,0,0,0-.62-8.432,3,3,0,0,0-.153-6.088L0-5.867Z" fill="#b20a4d"/>
      </g>
      <g id="Group_105" data-name="Group 105" transform="translate(28.654 -0.004)">
        <path id="Path_133" data-name="Path 133" d="M0,0H-1.729c0-12.787,6.009-22.566,6.94-22.873l.973.307-.7.516h0v0l.59.617C5.32-20.57,0-11.631,0,0M5.485-22.049l-.691.513Z" fill="#b20a4d"/>
      </g>
      <g id="Group_106" data-name="Group 106" transform="translate(21.153 -0.004)">
        <path id="Path_134" data-name="Path 134" d="M0,0H-1.729V-5.867l.153-.221a2.991,2.991,0,0,0,.467-2.343A2.986,2.986,0,0,0-2.49-10.379l-.884-.539L-4.45-19.4l1.716-.217.971,7.651.173.107A4.7,4.7,0,0,1,.583-8.791,4.7,4.7,0,0,1,0-5.342Z" fill="#b20a4d"/>
      </g>
      <g id="Group_107" data-name="Group 107" transform="translate(28.635 -0.004)">
        <path id="Path_135" data-name="Path 135" d="M0,0H-1.729c0-11.631-5.32-20.57-6.077-21.432l.6-.525,0-.092-.7-.517.973-.307C-6.009-22.566,0-12.787,0,0" fill="#b20a4d"/>
      </g>
      <g id="Group_108" data-name="Group 108" transform="translate(44.948 -2.471)">
        <path id="Path_136" data-name="Path 136" d="M0,0A3.29,3.29,0,0,1-3.286-3.286,3.29,3.29,0,0,1,0-6.572,3.29,3.29,0,0,1,3.286-3.286,3.29,3.29,0,0,1,0,0M0-4.843A1.559,1.559,0,0,0-1.556-3.286,1.559,1.559,0,0,0,0-1.729,1.559,1.559,0,0,0,1.556-3.286,1.559,1.559,0,0,0,0-4.843" fill="#b20a4d"/>
      </g>
      <g id="Group_109" data-name="Group 109" transform="translate(45.813 -8.178)">
        <path id="Path_137" data-name="Path 137" d="M0,0H-1.729V-1.186a16.283,16.283,0,0,0-2.18-8.146l1.5-.867A18.015,18.015,0,0,1,0-1.186Z" fill="#b20a4d"/>
      </g>
      <g id="Group_110" data-name="Group 110" transform="translate(11.495 -9.363)">
        <path id="Path_138" data-name="Path 138" d="M0,0H-1.729A18.021,18.021,0,0,1,.683-9.013l1.5.866A16.3,16.3,0,0,0,0,0" fill="#b20a4d"/>
      </g>
      <g id="Group_111" data-name="Group 111" transform="translate(15.889 -2.267)">
        <path id="Path_139" data-name="Path 139" d="M0,0H-1.729V-2.586A3.532,3.532,0,0,0-5.258-6.113,3.531,3.531,0,0,0-8.786-2.586V0h-1.729V-2.586A5.263,5.263,0,0,1-5.258-7.843,5.263,5.263,0,0,1,0-2.586Z" fill="#b20a4d"/>
      </g>
      <g id="Group_112" data-name="Group 112" transform="translate(28.232 -23.193)">
        <path id="Path_140" data-name="Path 140" d="M0,0H-.858c-7.221,0-9.731-8.188-10.313-10.6-1.864-.336-3.112-2-3.112-4.282v-4.8h1.4v-6.809A8.667,8.667,0,0,1-4.23-35.149H9.255v1.776a7.777,7.777,0,0,1-.057.946,4.733,4.733,0,0,1,2.83,4.329v8.415H13.4v4.8c0,2.317-1.213,3.956-3.085,4.284C9.729-8.183,7.219,0,0,0M-12.553-17.954v3.072c0,1.264.549,2.615,2.091,2.615h.719l.131.707c.019.1,1.907,9.831,8.754,9.831H0c6.864,0,8.735-9.732,8.754-9.83l.13-.708H9.6c1.523,0,2.065-1.351,2.065-2.615v-3.072H10.3V-28.1A3,3,0,0,0,8.782-30.7a7.761,7.761,0,0,1-7.273,5.077H-5.2a1.114,1.114,0,0,0-1.113,1.113v1.272H-8.044v-1.272A2.846,2.846,0,0,1-5.2-27.357H1.509A6.025,6.025,0,0,0,7.3-31.742v-1.082c.067,0,.134,0,.2,0,.017-.182.025-.366.025-.553v-.046H-4.23a6.935,6.935,0,0,0-6.927,6.927v8.538Z" fill="#b20a4d"/>
      </g>
    </g>
  </g>
</svg>
