<svg xmlns="http://www.w3.org/2000/svg" width="150.974" height="191.212" viewBox="0 0 150.974 191.212">
  <g id="Component_9_11" data-name="Component 9 – 11" transform="matrix(0.998, 0.07, -0.07, 0.998, 12.695, 0)">
    <path id="Path_112" data-name="Path 112" d="M608.347,195.531,576.157,71.737a7.256,7.256,0,0,0-8.871-5.245l-19.5,5.232-1.026-3.944a4.506,4.506,0,0,0-5.509-3.258l-11.569,3.1a9.122,9.122,0,0,0-10.831-5.553,9.3,9.3,0,0,0-6.721,10.261l-11.568,3.1a4.591,4.591,0,0,0-3.207,5.6l1.026,3.944-19.5,5.231a7.392,7.392,0,0,0-5.164,9.01L505.9,223.01a7.255,7.255,0,0,0,8.87,5.245l88.414-23.715A7.392,7.392,0,0,0,608.347,195.531Z" transform="translate(-473.467 -46.514)" fill="#3a7ec1" opacity="0.25" style="mix-blend-mode: multiply;isolation: isolate"/>
    <g id="Group_66" data-name="Group 66" transform="translate(2.259 10.281)">
      <g id="Group_61" data-name="Group 61" transform="translate(0 3.836)">
        <rect id="Rectangle_52" data-name="Rectangle 52" width="103.833" height="140.857" rx="9.128" transform="matrix(0.967, -0.255, 0.255, 0.967, 0, 26.765)" fill="#fff"/>
        <path id="Path_113" data-name="Path 113" d="M607.447,198.678l-88.414,23.81a7.254,7.254,0,0,1-8.871-5.266L477.973,92.936a7.423,7.423,0,0,1,5.163-9.045l88.414-23.81a7.254,7.254,0,0,1,8.871,5.266L612.61,189.634A7.423,7.423,0,0,1,607.447,198.678ZM483.693,86.04a5.2,5.2,0,0,0-3.613,6.328l32.189,124.287a5.076,5.076,0,0,0,6.207,3.685l88.414-23.81A5.2,5.2,0,0,0,610.5,190.2L578.313,65.914a5.075,5.075,0,0,0-6.206-3.685Z" transform="translate(-477.488 -59.835)" fill="#532f63"/>
      </g>
      <g id="Group_62" data-name="Group 62" transform="translate(25.914)">
        <path id="Path_114" data-name="Path 114" d="M552.021,57.244l-10.908,2.883A6.993,6.993,0,1,0,527.59,63.7l-10.908,2.883a2.971,2.971,0,0,0-2.112,3.63l1.4,5.308a2.968,2.968,0,0,0,3.628,2.113l35.339-9.34a2.97,2.97,0,0,0,2.111-3.63l-1.4-5.308A2.968,2.968,0,0,0,552.021,57.244Z" transform="translate(-513.525 -53.968)" fill="#dbe2ef"/>
        <path id="Path_115" data-name="Path 115" d="M554.513,68.546l-35.339,9.339A3.918,3.918,0,0,1,514.39,75.1l-1.4-5.308A3.921,3.921,0,0,1,515.774,65l10.047-2.655a7.94,7.94,0,0,1,15.244-4.029l10.048-2.655A3.919,3.919,0,0,1,555.9,58.45l1.4,5.308A3.922,3.922,0,0,1,554.513,68.546Zm-38.255-1.712a2.025,2.025,0,0,0-1.438,2.473l1.4,5.308a2.023,2.023,0,0,0,2.47,1.439l35.339-9.339a2.025,2.025,0,0,0,1.438-2.472l-1.4-5.308a2.023,2.023,0,0,0-2.47-1.44L539.773,60.62l-.242-.916a6.047,6.047,0,1,0-11.692,3.09l.242.916Z" transform="translate(-512.859 -53.303)" fill="#532f63"/>
      </g>
      <ellipse id="Ellipse_11" data-name="Ellipse 11" cx="2.491" cy="2.493" rx="2.491" ry="2.493" transform="translate(45.552 6.076)" fill="#532f63"/>
      <g id="Group_63" data-name="Group 63" transform="translate(25.076 40.224)">
        <ellipse id="Ellipse_12" data-name="Ellipse 12" cx="8.893" cy="8.899" rx="8.893" ry="8.899" transform="translate(0 8.088)" fill="#e4ecf9"/>
        <path id="Path_116" data-name="Path 116" d="M568.914,112.727l-22.735,6.008a1.327,1.327,0,0,1-1.617-.942h0a1.33,1.33,0,0,1,.942-1.619l22.735-6.008a1.328,1.328,0,0,1,1.618.942h0A1.328,1.328,0,0,1,568.914,112.727Z" transform="translate(-523.726 -110.122)" fill="#e40e63"/>
        <path id="Path_117" data-name="Path 117" d="M588.648,114.817l-39.879,10.539a1.328,1.328,0,0,1-1.618-.943h0a1.328,1.328,0,0,1,.942-1.619l39.879-10.539a1.328,1.328,0,0,1,1.618.942h0A1.328,1.328,0,0,1,588.648,114.817Z" transform="translate(-524.796 -110.984)" fill="#e4ecf9"/>
        <path id="Path_118" data-name="Path 118" d="M591.238,124.622l-39.879,10.539a1.327,1.327,0,0,1-1.618-.942h0a1.328,1.328,0,0,1,.942-1.619l39.879-10.539a1.328,1.328,0,0,1,1.618.942h0A1.329,1.329,0,0,1,591.238,124.622Z" transform="translate(-525.866 -115.032)" fill="#e4ecf9"/>
      </g>
      <g id="Group_64" data-name="Group 64" transform="translate(34.94 73.721)">
        <ellipse id="Ellipse_13" data-name="Ellipse 13" cx="8.893" cy="8.899" rx="8.893" ry="8.899" transform="translate(0 8.088)" fill="#e4ecf9"/>
        <path id="Path_119" data-name="Path 119" d="M581.411,160.045l-22.735,6.008a1.327,1.327,0,0,1-1.618-.942h0a1.329,1.329,0,0,1,.942-1.619l22.735-6.008a1.328,1.328,0,0,1,1.618.942h0A1.329,1.329,0,0,1,581.411,160.045Z" transform="translate(-536.222 -157.439)" fill="#e4ecf9"/>
        <path id="Path_120" data-name="Path 120" d="M601.144,162.135l-39.879,10.539a1.328,1.328,0,0,1-1.618-.942h0a1.329,1.329,0,0,1,.942-1.619l39.879-10.539a1.327,1.327,0,0,1,1.618.942h0A1.328,1.328,0,0,1,601.144,162.135Z" transform="translate(-537.292 -158.302)" fill="#e4ecf9"/>
        <path id="Path_121" data-name="Path 121" d="M603.734,171.94l-39.879,10.539a1.328,1.328,0,0,1-1.618-.942h0a1.328,1.328,0,0,1,.942-1.619l39.879-10.539a1.328,1.328,0,0,1,1.618.942h0A1.328,1.328,0,0,1,603.734,171.94Z" transform="translate(-538.362 -162.349)" fill="#e4ecf9"/>
      </g>
      <g id="Group_65" data-name="Group 65" transform="translate(44.804 107.219)">
        <ellipse id="Ellipse_14" data-name="Ellipse 14" cx="8.893" cy="8.899" rx="8.893" ry="8.899" transform="translate(0 8.088)" fill="#e4ecf9"/>
        <path id="Path_122" data-name="Path 122" d="M593.907,207.363l-22.735,6.008a1.327,1.327,0,0,1-1.618-.942h0a1.329,1.329,0,0,1,.942-1.619l22.735-6.008a1.328,1.328,0,0,1,1.618.942h0A1.328,1.328,0,0,1,593.907,207.363Z" transform="translate(-548.719 -204.757)" fill="#e4ecf9"/>
        <path id="Path_123" data-name="Path 123" d="M613.641,209.453l-39.879,10.539a1.327,1.327,0,0,1-1.618-.942h0a1.329,1.329,0,0,1,.942-1.619l39.879-10.539a1.327,1.327,0,0,1,1.618.942h0A1.329,1.329,0,0,1,613.641,209.453Z" transform="translate(-549.789 -205.62)" fill="#e4ecf9"/>
        <path id="Path_124" data-name="Path 124" d="M616.23,219.258,576.351,229.8a1.328,1.328,0,0,1-1.618-.942h0a1.329,1.329,0,0,1,.942-1.619L615.554,216.7a1.327,1.327,0,0,1,1.618.943h0A1.328,1.328,0,0,1,616.23,219.258Z" transform="translate(-550.859 -209.667)" fill="#e4ecf9"/>
      </g>
      <path id="Path_125" data-name="Path 125" d="M527.629,120.115l-.046.039a14.5,14.5,0,0,0-1.494,1.467l-.668.767-.606.793a26.884,26.884,0,0,0-2.124,3.3,28.908,28.908,0,0,0-1.7,3.485c-.282.666-.532,1.346-.765,2.034-.418-.087-.84-.161-1.27-.221-.59-.107-1.208-.146-1.82-.2a14.725,14.725,0,0,0-1.905,0l-.06,0a.124.124,0,0,0-.042.236c2.124.979,4.268,1.911,6.413,2.842a.23.23,0,0,0,.3-.121c1.038-2.362,2.059-4.732,3.038-7.12l1.489-3.573c.505-1.187.965-2.393,1.45-3.59a.126.126,0,0,0-.02-.126A.124.124,0,0,0,527.629,120.115Z" transform="translate(-489.167 -73.518)" fill="#bacce5"/>
      <path id="Path_126" data-name="Path 126" d="M540.129,167.446l-.046.039a14.44,14.44,0,0,0-1.494,1.466l-.668.768-.606.793a26.885,26.885,0,0,0-2.124,3.3,28.949,28.949,0,0,0-1.7,3.485c-.282.667-.532,1.346-.765,2.034-.418-.086-.841-.161-1.27-.221-.59-.107-1.208-.146-1.82-.2a14.832,14.832,0,0,0-1.905,0l-.06,0a.123.123,0,0,0-.042.235c2.124.979,4.268,1.911,6.413,2.842a.23.23,0,0,0,.3-.121c1.038-2.362,2.059-4.732,3.038-7.12l1.489-3.573c.505-1.187.965-2.393,1.45-3.59a.126.126,0,0,0-.02-.126A.124.124,0,0,0,540.129,167.446Z" transform="translate(-493.091 -87.845)" fill="#bacce5"/>
      <path id="Path_127" data-name="Path 127" d="M552.629,214.777l-.046.039a14.375,14.375,0,0,0-1.494,1.467l-.668.767-.606.793a26.892,26.892,0,0,0-2.124,3.3,28.874,28.874,0,0,0-1.7,3.485c-.282.666-.532,1.346-.765,2.033-.418-.086-.841-.161-1.27-.22-.59-.107-1.209-.147-1.82-.2a14.828,14.828,0,0,0-1.905,0l-.06,0a.124.124,0,0,0-.042.236c2.124.979,4.268,1.91,6.413,2.842a.229.229,0,0,0,.3-.12c1.038-2.363,2.059-4.732,3.038-7.12l1.489-3.573c.505-1.187.965-2.394,1.45-3.59a.124.124,0,0,0-.02-.126A.123.123,0,0,0,552.629,214.777Z" transform="translate(-497.016 -102.172)" fill="#bacce5"/>
    </g>
    <path id="Path_128" data-name="Path 128" d="M643.584,51.088a26.35,26.35,0,1,0-17.743,32.79A26.346,26.346,0,0,0,643.584,51.088Z" transform="translate(-511.044 -27.306)" fill="#3a7ec1" opacity="0.25" style="mix-blend-mode: multiply;isolation: isolate"/>
    <g id="Group_68" data-name="Group 68" transform="translate(80.929)">
      <g id="Group_67" data-name="Group 67">
        <ellipse id="Ellipse_15" data-name="Ellipse 15" cx="26.138" cy="26.156" rx="26.138" ry="26.156" transform="translate(0.958 0.958)" fill="#fff"/>
        <path id="Path_129" data-name="Path 129" d="M622.831,77.948a27.155,27.155,0,1,1,7.758-1.137A26.926,26.926,0,0,1,622.831,77.948Zm.07-52.092a24.987,24.987,0,1,0,11.846,3.024A25.022,25.022,0,0,0,622.9,25.856Z" transform="translate(-595.771 -23.718)" fill="#532f63"/>
      </g>
    </g>
    <g id="Group_48" data-name="Group 48" transform="translate(93.659 11.574) rotate(-4)">
      <path id="Path_78" data-name="Path 78" d="M162.893,464.3a15.34,15.34,0,0,1-.12,1.9,21.433,21.433,0,0,1-26.262-.053,15.5,15.5,0,0,1-.112-1.9c.016-7.89,5.958-14.271,13.277-14.256S162.909,456.411,162.893,464.3Z" transform="translate(-136.399 -433.414)" fill="#bacce5"/>
      <ellipse id="Ellipse_9" data-name="Ellipse 9" cx="10.08" cy="5.525" rx="10.08" ry="5.525" transform="translate(7.739 22.963) rotate(-89.884)" fill="#a5b9d3"/>
      <ellipse id="Ellipse_10" data-name="Ellipse 10" cx="9.866" cy="7.96" rx="9.866" ry="7.96" transform="matrix(0.002, -1, 1, 0.002, 5.31, 19.732)" fill="#bacce5"/>
    </g>
  </g>
</svg>
