<svg id="Component_6_4" data-name="Component 6 – 4" xmlns="http://www.w3.org/2000/svg" width="199.357" height="146.097" viewBox="0 0 199.357 146.097">
  <g id="Group_50" data-name="Group 50">
    <rect id="Rectangle_34" data-name="Rectangle 34" width="77.01" height="98.161" rx="10.116" transform="translate(122.347 25.613)" fill="#3a7ec1" opacity="0.25" style="mix-blend-mode: multiply;isolation: isolate"/>
    <g id="Group_42" data-name="Group 42" transform="translate(116.976 25.616)">
      <g id="Group_39" data-name="Group 39">
        <rect id="Rectangle_35" data-name="Rectangle 35" width="75.366" height="96.526" rx="7.015" transform="translate(0.82 0.814)" fill="#fff"/>
        <path id="Path_66" data-name="Path 66" d="M309.575,424.007H246.852a7.13,7.13,0,0,0-7.144,7.1v83.964a7.125,7.125,0,0,0,7.144,7.1h62.723a7.125,7.125,0,0,0,7.144-7.1V431.1A7.13,7.13,0,0,0,309.575,424.007Zm5.5,91.059a5.488,5.488,0,0,1-5.5,5.459H246.852a5.483,5.483,0,0,1-5.5-5.459V431.1a5.483,5.483,0,0,1,5.5-5.46h62.723a5.488,5.488,0,0,1,5.5,5.46Z" transform="translate(-239.708 -424.007)" fill="#532f63"/>
      </g>
      <g id="Group_41" data-name="Group 41" transform="translate(22.12 13.596)">
        <ellipse id="Ellipse_2" data-name="Ellipse 2" cx="16.384" cy="16.292" rx="16.384" ry="16.292" fill="#e4ecf9"/>
        <g id="Group_40" data-name="Group 40" transform="translate(7.465 4.73)">
          <path id="Path_67" data-name="Path 67" d="M299.411,475.59a10.436,10.436,0,0,1-.08,1.278,14.4,14.4,0,0,1-17.646-.036,10.311,10.311,0,0,1-.075-1.278c.011-5.3,4-9.588,8.921-9.578S299.421,470.289,299.411,475.59Z" transform="translate(-281.61 -454.838)" fill="#bacce5"/>
          <ellipse id="Ellipse_3" data-name="Ellipse 3" cx="6.773" cy="3.712" rx="6.773" ry="3.712" transform="translate(5.199 15.428) rotate(-89.884)" fill="#a5b9d3"/>
          <ellipse id="Ellipse_4" data-name="Ellipse 4" cx="6.629" cy="5.348" rx="6.629" ry="5.348" transform="translate(3.568 13.258) rotate(-89.884)" fill="#bacce5"/>
        </g>
      </g>
      <path id="Path_68" data-name="Path 68" d="M300.633,503.016H276.107a1.837,1.837,0,0,1-1.841-1.832h0a1.837,1.837,0,0,1,1.841-1.831h24.525a1.836,1.836,0,0,1,1.841,1.831h0A1.836,1.836,0,0,1,300.633,503.016Z" transform="translate(-249.866 -446.455)" fill="#bacce5"/>
      <path id="Path_69" data-name="Path 69" d="M308.818,514.453H256.243a1.837,1.837,0,0,1-1.841-1.832h0a1.837,1.837,0,0,1,1.841-1.831h52.575a1.836,1.836,0,0,1,1.841,1.831h0A1.836,1.836,0,0,1,308.818,514.453Z" transform="translate(-244.027 -449.863)" fill="#e4ecf9"/>
      <rect id="Rectangle_36" data-name="Rectangle 36" width="56.258" height="3.663" rx="1.831" transform="translate(10.374 68.956)" fill="#e4ecf9"/>
      <path id="Path_70" data-name="Path 70" d="M308.818,537.326H256.243a1.837,1.837,0,0,1-1.841-1.831h0a1.837,1.837,0,0,1,1.841-1.832h52.575a1.836,1.836,0,0,1,1.841,1.832h0A1.836,1.836,0,0,1,308.818,537.326Z" transform="translate(-244.027 -456.678)" fill="#e4ecf9"/>
      <path id="Path_71" data-name="Path 71" d="M308.818,548.763H256.243a1.837,1.837,0,0,1-1.841-1.831h0a1.837,1.837,0,0,1,1.841-1.832h52.575a1.836,1.836,0,0,1,1.841,1.832h0A1.836,1.836,0,0,1,308.818,548.763Z" transform="translate(-244.027 -460.085)" fill="#e4ecf9"/>
    </g>
    <path id="Path_72" data-name="Path 72" d="M288.811,424.007v98.154H246.852a7.125,7.125,0,0,1-7.144-7.1V431.1a7.13,7.13,0,0,1,7.144-7.1Z" transform="translate(-122.732 -398.391)" fill="#3a7ec1" opacity="0.25" style="mix-blend-mode: multiply;isolation: isolate"/>
    <g id="Group_46" data-name="Group 46" transform="translate(65.941 13.925)">
      <g id="Group_43" data-name="Group 43">
        <rect id="Rectangle_37" data-name="Rectangle 37" width="92.888" height="118.967" rx="10.485" transform="translate(1.01 1.005)" fill="#fff"/>
        <path id="Path_73" data-name="Path 73" d="M253.537,407.355H176.223a8.783,8.783,0,0,0-8.8,8.747V519.581a8.79,8.79,0,0,0,8.8,8.755h77.314a8.79,8.79,0,0,0,8.8-8.755V416.1A8.783,8.783,0,0,0,253.537,407.355Zm6.773,112.226a6.759,6.759,0,0,1-6.773,6.734H176.223a6.758,6.758,0,0,1-6.772-6.734V416.1a6.758,6.758,0,0,1,6.772-6.734h77.314a6.759,6.759,0,0,1,6.773,6.734Z" transform="translate(-167.426 -407.355)" fill="#532f63"/>
      </g>
      <g id="Group_45" data-name="Group 45" transform="translate(27.261 16.758)">
        <ellipse id="Ellipse_5" data-name="Ellipse 5" cx="20.193" cy="20.079" rx="20.193" ry="20.079" fill="#e4ecf9"/>
        <g id="Group_44" data-name="Group 44" transform="translate(9.2 5.83)">
          <path id="Path_74" data-name="Path 74" d="M241.007,470.932a12.85,12.85,0,0,1-.1,1.575,17.748,17.748,0,0,1-21.747-.044,12.739,12.739,0,0,1-.093-1.576c.013-6.533,4.935-11.817,11-11.805S241.02,464.4,241.007,470.932Z" transform="translate(-219.067 -445.355)" fill="#bacce5"/>
          <ellipse id="Ellipse_6" data-name="Ellipse 6" cx="8.347" cy="4.575" rx="8.347" ry="4.575" transform="matrix(0.002, -1, 1, 0.002, 6.409, 19.015)" fill="#a5b9d3"/>
          <ellipse id="Ellipse_7" data-name="Ellipse 7" cx="8.17" cy="6.591" rx="8.17" ry="6.591" transform="translate(4.398 16.34) rotate(-89.884)" fill="#bacce5"/>
        </g>
      </g>
      <rect id="Rectangle_38" data-name="Rectangle 38" width="34.766" height="4.514" rx="2.257" transform="translate(30.071 65.197)" fill="#bacce5"/>
      <rect id="Rectangle_39" data-name="Rectangle 39" width="69.337" height="4.514" rx="2.257" transform="translate(12.785 75.093)" fill="#e4ecf9"/>
      <rect id="Rectangle_40" data-name="Rectangle 40" width="69.337" height="4.514" rx="2.257" transform="translate(12.785 84.989)" fill="#e4ecf9"/>
      <rect id="Rectangle_41" data-name="Rectangle 41" width="69.337" height="4.514" rx="2.257" transform="translate(12.785 94.885)" fill="#e4ecf9"/>
      <path id="Path_75" data-name="Path 75" d="M252.6,561.117H187.8a2.263,2.263,0,0,1-2.27-2.256h0a2.263,2.263,0,0,1,2.27-2.257h64.8a2.263,2.263,0,0,1,2.27,2.257h0A2.263,2.263,0,0,1,252.6,561.117Z" transform="translate(-172.749 -451.822)" fill="#e4ecf9"/>
    </g>
    <path id="Path_76" data-name="Path 76" d="M221.573,407.355V528.336h-45.35a8.79,8.79,0,0,1-8.8-8.755V416.1a8.783,8.783,0,0,1,8.8-8.747Z" transform="translate(-101.485 -393.43)" fill="#3a7ec1" opacity="0.25" style="mix-blend-mode: multiply;isolation: isolate"/>
    <g id="Group_47" data-name="Group 47" transform="translate(0)">
      <rect id="Rectangle_42" data-name="Rectangle 42" width="112.172" height="143.665" rx="13.549" transform="translate(1.223 1.216)" fill="#fff"/>
      <path id="Path_77" data-name="Path 77" d="M178.019,533.617H84.662a10.612,10.612,0,0,1-10.631-10.57V398.09a10.612,10.612,0,0,1,10.631-10.57h93.357a10.613,10.613,0,0,1,10.63,10.57V523.047A10.613,10.613,0,0,1,178.019,533.617ZM84.662,389.953a8.17,8.17,0,0,0-8.184,8.137V523.047a8.17,8.17,0,0,0,8.184,8.138h93.357a8.17,8.17,0,0,0,8.184-8.138V398.09a8.169,8.169,0,0,0-8.184-8.137Z" transform="translate(-74.031 -387.52)" fill="#532f63"/>
    </g>
    <g id="Group_49" data-name="Group 49" transform="translate(32.924 20.24)">
      <ellipse id="Ellipse_8" data-name="Ellipse 8" cx="24.385" cy="24.248" rx="24.385" ry="24.248" fill="#e4ecf9"/>
      <g id="Group_48" data-name="Group 48" transform="translate(11.111 7.041)">
        <path id="Path_78" data-name="Path 78" d="M162.893,464.3a15.34,15.34,0,0,1-.12,1.9,21.433,21.433,0,0,1-26.262-.053,15.5,15.5,0,0,1-.112-1.9c.016-7.89,5.958-14.271,13.277-14.256S162.909,456.411,162.893,464.3Z" transform="translate(-136.399 -433.414)" fill="#bacce5"/>
        <ellipse id="Ellipse_9" data-name="Ellipse 9" cx="10.08" cy="5.525" rx="10.08" ry="5.525" transform="translate(7.739 22.963) rotate(-89.884)" fill="#a5b9d3"/>
        <ellipse id="Ellipse_10" data-name="Ellipse 10" cx="9.866" cy="7.96" rx="9.866" ry="7.96" transform="matrix(0.002, -1, 1, 0.002, 5.31, 19.732)" fill="#bacce5"/>
      </g>
    </g>
    <path id="Path_79" data-name="Path 79" d="M164.711,505.12h-36.5a2.734,2.734,0,0,1-2.742-2.725h0a2.734,2.734,0,0,1,2.742-2.726h36.5a2.733,2.733,0,0,1,2.741,2.726h0A2.733,2.733,0,0,1,164.711,505.12Z" transform="translate(-89.151 -420.933)" fill="#e40e63"/>
    <rect id="Rectangle_43" data-name="Rectangle 43" width="83.732" height="5.451" rx="2.726" transform="translate(15.443 90.686)" fill="#e4ecf9"/>
    <path id="Path_80" data-name="Path 80" d="M176.9,539.164H98.645a2.733,2.733,0,0,1-2.741-2.725h0a2.734,2.734,0,0,1,2.741-2.726H176.9a2.734,2.734,0,0,1,2.741,2.726h0A2.733,2.733,0,0,1,176.9,539.164Z" transform="translate(-80.461 -431.076)" fill="#e4ecf9"/>
    <rect id="Rectangle_44" data-name="Rectangle 44" width="83.732" height="5.451" rx="2.726" transform="translate(15.443 114.587)" fill="#e4ecf9"/>
    <path id="Path_81" data-name="Path 81" d="M176.9,573.208H98.645a2.733,2.733,0,0,1-2.741-2.725h0a2.733,2.733,0,0,1,2.741-2.725H176.9a2.733,2.733,0,0,1,2.741,2.725h0A2.733,2.733,0,0,1,176.9,573.208Z" transform="translate(-80.461 -441.219)" fill="#e4ecf9"/>
  </g>
</svg>
